<mxfile host="app.diagrams.net" modified="2023-05-27T13:59:29.030Z" agent="Mozilla/5.0 (Windows NT 10.0; Win64; x64) AppleWebKit/537.36 (KHTML, like Gecko) Chrome/113.0.0.0 Safari/537.36" etag="k_zWtSaCqSIe4nfjVVyV" version="21.3.4" type="device">
  <diagram name="Page-1" id="7F8XoeqNzgExtDkTt63r">
    <mxGraphModel dx="2327" dy="830" grid="1" gridSize="10" guides="1" tooltips="1" connect="1" arrows="1" fold="1" page="1" pageScale="1" pageWidth="827" pageHeight="1169" math="0" shadow="0">
      <root>
        <mxCell id="0" />
        <mxCell id="1" parent="0" />
        <mxCell id="zk5iBjnvamg6UPnarVHf-1" value="Uporabnik" style="swimlane;whiteSpace=wrap;html=1;" vertex="1" parent="1">
          <mxGeometry x="-80" y="30" width="240" height="540" as="geometry" />
        </mxCell>
        <mxCell id="zk5iBjnvamg6UPnarVHf-2" value="" style="ellipse;html=1;shape=startState;fillColor=#000000;strokeColor=#ff0000;" vertex="1" parent="zk5iBjnvamg6UPnarVHf-1">
          <mxGeometry x="105" y="30" width="30" height="30" as="geometry" />
        </mxCell>
        <mxCell id="zk5iBjnvamg6UPnarVHf-3" value="" style="edgeStyle=orthogonalEdgeStyle;html=1;verticalAlign=bottom;endArrow=open;endSize=8;strokeColor=#ff0000;rounded=0;entryX=0.5;entryY=0;entryDx=0;entryDy=0;" edge="1" parent="zk5iBjnvamg6UPnarVHf-1" source="zk5iBjnvamg6UPnarVHf-2" target="zk5iBjnvamg6UPnarVHf-4">
          <mxGeometry relative="1" as="geometry">
            <mxPoint x="-25" y="120" as="targetPoint" />
          </mxGeometry>
        </mxCell>
        <mxCell id="zk5iBjnvamg6UPnarVHf-4" value="Klikne na gumb za izbris rastline" style="rounded=1;whiteSpace=wrap;html=1;" vertex="1" parent="zk5iBjnvamg6UPnarVHf-1">
          <mxGeometry x="60" y="80" width="120" height="60" as="geometry" />
        </mxCell>
        <mxCell id="zk5iBjnvamg6UPnarVHf-9" style="edgeStyle=orthogonalEdgeStyle;rounded=0;orthogonalLoop=1;jettySize=auto;html=1;entryX=0.5;entryY=0;entryDx=0;entryDy=0;" edge="1" parent="zk5iBjnvamg6UPnarVHf-1" source="zk5iBjnvamg6UPnarVHf-10" target="zk5iBjnvamg6UPnarVHf-24">
          <mxGeometry relative="1" as="geometry">
            <mxPoint x="150" y="489.93" as="targetPoint" />
            <Array as="points" />
          </mxGeometry>
        </mxCell>
        <mxCell id="zk5iBjnvamg6UPnarVHf-10" value="Pregleda rastline, ki jih že ima v vrtu" style="whiteSpace=wrap;html=1;rounded=1;" vertex="1" parent="zk5iBjnvamg6UPnarVHf-1">
          <mxGeometry x="60" y="410" width="120" height="60" as="geometry" />
        </mxCell>
        <mxCell id="zk5iBjnvamg6UPnarVHf-24" value="" style="ellipse;html=1;shape=endState;fillColor=#000000;strokeColor=#ff0000;" vertex="1" parent="zk5iBjnvamg6UPnarVHf-1">
          <mxGeometry x="105" y="500" width="30" height="30" as="geometry" />
        </mxCell>
        <mxCell id="zk5iBjnvamg6UPnarVHf-41" value="Aplikacija" style="swimlane;whiteSpace=wrap;html=1;" vertex="1" parent="1">
          <mxGeometry x="160" y="30" width="280" height="540" as="geometry" />
        </mxCell>
        <mxCell id="zk5iBjnvamg6UPnarVHf-42" value="Ustvari zahtevo za izbris rastline" style="rounded=1;whiteSpace=wrap;html=1;" vertex="1" parent="zk5iBjnvamg6UPnarVHf-41">
          <mxGeometry x="80" y="80" width="120" height="60" as="geometry" />
        </mxCell>
        <mxCell id="zk5iBjnvamg6UPnarVHf-44" value="" style="edgeStyle=orthogonalEdgeStyle;rounded=0;orthogonalLoop=1;jettySize=auto;html=1;exitX=0.5;exitY=1;exitDx=0;exitDy=0;" edge="1" parent="zk5iBjnvamg6UPnarVHf-41" source="zk5iBjnvamg6UPnarVHf-42" target="zk5iBjnvamg6UPnarVHf-48">
          <mxGeometry relative="1" as="geometry">
            <mxPoint x="180" y="540" as="sourcePoint" />
          </mxGeometry>
        </mxCell>
        <mxCell id="zk5iBjnvamg6UPnarVHf-46" value="" style="edgeStyle=orthogonalEdgeStyle;rounded=0;orthogonalLoop=1;jettySize=auto;html=1;" edge="1" parent="zk5iBjnvamg6UPnarVHf-41" source="zk5iBjnvamg6UPnarVHf-47" target="zk5iBjnvamg6UPnarVHf-49">
          <mxGeometry relative="1" as="geometry" />
        </mxCell>
        <mxCell id="zk5iBjnvamg6UPnarVHf-47" value="Prejme odgovor" style="whiteSpace=wrap;html=1;rounded=1;" vertex="1" parent="zk5iBjnvamg6UPnarVHf-41">
          <mxGeometry x="80" y="330" width="120" height="60" as="geometry" />
        </mxCell>
        <mxCell id="zk5iBjnvamg6UPnarVHf-48" value="Pošlje zahtevek" style="rounded=1;whiteSpace=wrap;html=1;" vertex="1" parent="zk5iBjnvamg6UPnarVHf-41">
          <mxGeometry x="80" y="160" width="120" height="60" as="geometry" />
        </mxCell>
        <mxCell id="zk5iBjnvamg6UPnarVHf-49" value="Preusmeri na zaslon za virtualni vrt" style="whiteSpace=wrap;html=1;rounded=1;" vertex="1" parent="zk5iBjnvamg6UPnarVHf-41">
          <mxGeometry x="80" y="410" width="120" height="60" as="geometry" />
        </mxCell>
        <mxCell id="zk5iBjnvamg6UPnarVHf-50" value="Zaledni sistem" style="swimlane;whiteSpace=wrap;html=1;startSize=23;" vertex="1" parent="1">
          <mxGeometry x="440" y="30" width="200" height="540" as="geometry" />
        </mxCell>
        <mxCell id="zk5iBjnvamg6UPnarVHf-51" value="" style="edgeStyle=orthogonalEdgeStyle;rounded=0;orthogonalLoop=1;jettySize=auto;html=1;" edge="1" parent="zk5iBjnvamg6UPnarVHf-50" source="zk5iBjnvamg6UPnarVHf-52" target="zk5iBjnvamg6UPnarVHf-53">
          <mxGeometry relative="1" as="geometry" />
        </mxCell>
        <mxCell id="zk5iBjnvamg6UPnarVHf-52" value="Prejme zahtevek" style="whiteSpace=wrap;html=1;rounded=1;" vertex="1" parent="zk5iBjnvamg6UPnarVHf-50">
          <mxGeometry x="40" y="160" width="120" height="60" as="geometry" />
        </mxCell>
        <mxCell id="zk5iBjnvamg6UPnarVHf-53" value="Izbriše rastlino iz PB" style="whiteSpace=wrap;html=1;rounded=1;" vertex="1" parent="zk5iBjnvamg6UPnarVHf-50">
          <mxGeometry x="40" y="250" width="120" height="60" as="geometry" />
        </mxCell>
        <mxCell id="zk5iBjnvamg6UPnarVHf-54" value="" style="edgeStyle=orthogonalEdgeStyle;rounded=0;orthogonalLoop=1;jettySize=auto;html=1;exitX=0.5;exitY=1;exitDx=0;exitDy=0;entryX=0.5;entryY=0;entryDx=0;entryDy=0;" edge="1" parent="zk5iBjnvamg6UPnarVHf-50" source="zk5iBjnvamg6UPnarVHf-53" target="zk5iBjnvamg6UPnarVHf-55">
          <mxGeometry relative="1" as="geometry">
            <mxPoint x="100" y="860" as="targetPoint" />
          </mxGeometry>
        </mxCell>
        <mxCell id="zk5iBjnvamg6UPnarVHf-55" value="Vrne odgovor o statusu izbrisa" style="whiteSpace=wrap;html=1;rounded=1;" vertex="1" parent="zk5iBjnvamg6UPnarVHf-50">
          <mxGeometry x="40" y="330" width="120" height="60" as="geometry" />
        </mxCell>
        <mxCell id="zk5iBjnvamg6UPnarVHf-56" value="" style="endArrow=classic;html=1;rounded=0;exitX=1;exitY=0.5;exitDx=0;exitDy=0;entryX=0;entryY=0.5;entryDx=0;entryDy=0;" edge="1" parent="1" source="zk5iBjnvamg6UPnarVHf-4" target="zk5iBjnvamg6UPnarVHf-42">
          <mxGeometry width="50" height="50" relative="1" as="geometry">
            <mxPoint x="60" y="320" as="sourcePoint" />
            <mxPoint x="110" y="270" as="targetPoint" />
          </mxGeometry>
        </mxCell>
        <mxCell id="zk5iBjnvamg6UPnarVHf-58" value="" style="edgeStyle=orthogonalEdgeStyle;rounded=0;orthogonalLoop=1;jettySize=auto;html=1;" edge="1" parent="1" source="zk5iBjnvamg6UPnarVHf-48" target="zk5iBjnvamg6UPnarVHf-52">
          <mxGeometry relative="1" as="geometry" />
        </mxCell>
        <mxCell id="zk5iBjnvamg6UPnarVHf-62" style="edgeStyle=orthogonalEdgeStyle;rounded=0;orthogonalLoop=1;jettySize=auto;html=1;entryX=1;entryY=0.5;entryDx=0;entryDy=0;" edge="1" parent="1" source="zk5iBjnvamg6UPnarVHf-55" target="zk5iBjnvamg6UPnarVHf-47">
          <mxGeometry relative="1" as="geometry" />
        </mxCell>
        <mxCell id="zk5iBjnvamg6UPnarVHf-63" value="" style="edgeStyle=orthogonalEdgeStyle;rounded=0;orthogonalLoop=1;jettySize=auto;html=1;exitX=0;exitY=0.5;exitDx=0;exitDy=0;entryX=1;entryY=0.5;entryDx=0;entryDy=0;" edge="1" parent="1" source="zk5iBjnvamg6UPnarVHf-49" target="zk5iBjnvamg6UPnarVHf-10">
          <mxGeometry relative="1" as="geometry">
            <Array as="points" />
          </mxGeometry>
        </mxCell>
      </root>
    </mxGraphModel>
  </diagram>
</mxfile>
